<?xml version="1.0" encoding="UTF-8"?>
<svg id="b" data-name="Layer 2" xmlns="http://www.w3.org/2000/svg" width="1340.846" height="262.619" viewBox="0 0 1340.846 262.619">
  <g id="c" data-name="Layer 1">
    <g>
      <path id="d" data-name="Path 1" d="M176.726,109.224l-24.732-14.281c-33.738,19.544-67.514,39.036-101.328,58.475l24.748,14.292,101.312-58.486Z" fill="#8580e8" stroke-width="0"/>
      <path id="e" data-name="Path 2" d="M151.957,153.417l-88.864,51.307-38.301-22.1v-102.641L138.524,14.325,113.721,0,0,65.659v131.318l63.033,36.397,113.71-65.659-24.786-14.297Z" fill="#8580e8" stroke-width="0"/>
      <path id="f" data-name="Path 3" d="M50.683,94.904l24.759,14.341,88.913-51.329,38.301,22.1v102.636l-113.732,65.659,24.797,14.308,113.721-65.659V65.642l-63.033-36.397L50.683,94.904Z" fill="#8580e8" stroke-width="0"/>
    </g>
    <g>
      <path d="M321.675,150.034h-14.277v54.133h-27.562V63.581h54.926c27.363,0,44.812,18.837,44.812,43.227,0,19.63-11.5,34.502-29.941,39.856l30.14,57.504h-30.536l-27.562-54.133ZM329.607,126.438c13.88,0,22.01-7.932,22.01-19.432,0-11.897-8.13-19.63-22.01-19.63h-22.209v39.063h22.209Z" fill="#000" stroke-width="0"/>
      <path d="M486.452,176.208c-4.957,16.854-20.424,30.933-44.416,30.933-26.77,0-50.365-19.234-50.365-52.15,0-31.131,23.001-51.357,47.985-51.357,30.14,0,48.184,19.234,48.184,50.563,0,3.767-.396,7.733-.396,8.13h-69.797c.595,12.889,11.5,22.208,24.588,22.208,12.293,0,19.035-6.147,22.208-14.872l22.01,6.543ZM461.864,144.284c-.396-9.716-6.741-19.234-21.812-19.234-13.682,0-21.217,10.311-21.812,19.234h43.623Z" fill="#000" stroke-width="0"/>
      <path d="M527.692,155.388c0,17.648,11.501,27.562,24.984,27.562s20.226-8.923,22.406-16.458l23.2,7.733c-4.363,16.26-19.631,32.916-45.606,32.916-28.752,0-51.356-21.812-51.356-51.753,0-30.14,22.208-51.753,50.563-51.753,26.57,0,41.64,16.458,45.804,32.916l-23.596,7.932c-2.38-8.13-8.526-16.458-21.613-16.458-13.483,0-24.786,9.716-24.786,27.364Z" fill="#000" stroke-width="0"/>
      <path d="M704.165,176.208c-4.957,16.854-20.424,30.933-44.417,30.933-26.769,0-50.364-19.234-50.364-52.15,0-31.131,23.001-51.357,47.985-51.357,30.14,0,48.184,19.234,48.184,50.563,0,3.767-.396,7.733-.396,8.13h-69.797c.595,12.889,11.5,22.208,24.588,22.208,12.293,0,19.035-6.147,22.208-14.872l22.01,6.543ZM679.578,144.284c-.396-9.716-6.741-19.234-21.812-19.234-13.682,0-21.217,10.311-21.812,19.234h43.623Z" fill="#000" stroke-width="0"/>
      <path d="M739.456,58.227c9.122,0,16.26,7.337,16.26,16.458,0,8.725-7.138,16.061-16.26,16.061-8.923,0-16.259-7.337-16.259-16.061,0-9.121,7.336-16.458,16.259-16.458ZM726.37,204.167v-97.558h26.373v97.558h-26.373Z" fill="#000" stroke-width="0"/>
      <path d="M780.896,241.842V106.609h25.579v11.897c4.362-7.535,15.269-14.078,29.941-14.078,28.554,0,45.012,21.812,45.012,50.762,0,29.545-18.44,51.357-46.003,51.357-13.483,0-23.397-5.354-28.156-11.897v47.193h-26.373ZM831.261,128.024c-13.483,0-24.39,10.113-24.39,27.364s10.906,27.562,24.39,27.562,24.191-10.113,24.191-27.562c0-17.251-10.708-27.364-24.191-27.364Z" fill="#000" stroke-width="0"/>
      <path d="M934.369,106.609h19.631v23.398h-19.631v40.847c0,8.526,3.966,11.302,11.501,11.302,3.172,0,6.741-.396,8.13-.793v21.812c-2.38.991-7.139,2.38-14.872,2.38-19.035,0-30.933-11.302-30.933-30.14v-45.408h-17.647v-23.398h4.957c10.311,0,15.069-6.742,15.069-15.467v-13.682h23.795v29.148Z" fill="#000" stroke-width="0"/>
      <path d="M1066.424,204.167v-58.297h-61.271v58.297h-27.363V63.581h27.363v56.512h61.271v-56.512h27.562v140.586h-27.562Z" fill="#000" stroke-width="0"/>
      <path d="M1187.175,193.658c-5.354,9.121-16.656,13.087-26.967,13.087-23.597,0-37.08-17.251-37.08-38.468v-61.667h26.372v56.314c0,10.906,5.553,19.63,17.847,19.63,11.698,0,18.44-7.932,18.44-19.234v-56.71h26.372v79.91c0,7.535.595,14.277.991,17.648h-25.183c-.396-1.983-.793-6.543-.793-10.509Z" fill="#000" stroke-width="0"/>
      <path d="M1240.314,204.167V60.606h25.976v56.71c4.363-6.94,15.07-13.285,29.545-13.285,28.554,0,45.012,22.01,45.012,50.96,0,29.545-18.242,51.555-46.003,51.555-13.483,0-23.794-5.949-28.95-14.277v11.897h-25.579ZM1290.283,127.628c-13.285,0-24.39,9.716-24.39,27.562,0,17.648,11.104,27.76,24.39,27.76,13.483,0,24.191-9.914,24.191-27.76s-10.708-27.562-24.191-27.562Z" fill="#000" stroke-width="0"/>
    </g>
  </g>
</svg>
